<?xml version="1.0" encoding="UTF-8" standalone="no"?>
<svg
   width="1em"
   height="1em"
   viewBox="0 0 256 256"
   version="1.1"
   id="svg1"
   sodipodi:docname="logo.svg"
   xml:space="preserve"
   inkscape:version="1.4 (1:1.4+202410161351+e7c3feb100)"
   xmlns:inkscape="http://www.inkscape.org/namespaces/inkscape"
   xmlns:sodipodi="http://sodipodi.sourceforge.net/DTD/sodipodi-0.dtd"
   xmlns="http://www.w3.org/2000/svg"
   xmlns:svg="http://www.w3.org/2000/svg"><defs
     id="defs1"><inkscape:path-effect
       effect="fillet_chamfer"
       id="path-effect4"
       is_visible="true"
       lpeversion="1"
       nodesatellites_param="F,0,0,1,0,0,0,1 @ F,0,0,1,0,0,0,1 @ F,0,0,1,0,0,0,1 @ F,0,0,1,0,0,0,1 | F,0,0,1,0,0,0,1 @ F,0,0,1,0,0,0,1 @ F,0,0,1,0,0,0,1 @ F,0,0,1,0,0,0,1 | F,0,0,1,0,0,0,1 @ F,0,0,1,0,0,0,1 @ F,0,0,1,0,0,0,1 @ F,0,0,1,0,0,0,1 @ F,0,0,1,0,0,0,1 @ F,0,0,1,0,0,0,1 @ F,0,0,1,0,0,0,1 @ F,0,0,1,0,0,0,1 @ F,0,0,1,0,0,0,1 @ F,0,0,1,0,0,0,1 @ F,0,0,1,0,0,0,1 @ F,0,0,1,0,0,0,1 | F,0,0,1,0,0,0,1 @ F,0,0,1,0,0,0,1 @ F,0,0,1,0,0,0,1 @ F,0,0,1,0,0,0,1 | F,0,0,1,0,0,0,1 @ F,0,0,1,0,0,0,1 @ F,0,0,1,0,0,0,1 @ F,0,0,1,0,0,0,1 | F,0,0,1,0,0,0,1 @ F,0,0,1,0,0,0,1 @ F,0,0,1,0,0,0,1 @ F,0,0,1,0,0,0,1 | F,0,0,1,0,0,0,1 @ F,0,0,1,0,0,0,1 @ F,0,0,1,0,0,0,1 @ F,0,0,1,0,0,0,1 | F,0,0,1,0,0,0,1 @ F,0,0,1,0,0,0,1 @ F,0,0,1,0,0,0,1 @ F,0,0,1,0,0,0,1 | F,0,0,1,0,0,0,1 @ F,0,0,1,0,0,0,1 @ F,0,0,1,0,0,0,1 @ F,0,0,1,0,0,0,1 | F,0,0,1,0,0,0,1 @ F,0,0,1,0,0,0,1 @ F,0,0,1,0,0,0,1 @ F,0,0,1,0,0,0,1 | F,0,0,1,0,0,0,1 @ F,0,0,1,0,0,0,1 @ F,0,0,1,0,0,0,1 @ F,0,0,1,0,0,0,1 | F,0,1,1,0,8.7796569,0,1 @ F,0,0,1,0,8.7796569,0,1 @ F,0,1,1,0,8.7796569,0,1 @ F,0,1,1,0,8.7796569,0,1 @ F,0,1,1,0,8.7796569,0,1 @ F,0,1,1,0,8.7796569,0,1"
       radius="0"
       unit="px"
       method="auto"
       mode="F"
       chamfer_steps="1"
       flexible="false"
       use_knot_distance="true"
       apply_no_radius="true"
       apply_with_radius="true"
       only_selected="false"
       hide_knots="false" /><inkscape:path-effect
       effect="fillet_chamfer"
       id="path-effect3"
       is_visible="true"
       lpeversion="1"
       nodesatellites_param="F,0,0,1,0,0,0,1 @ F,0,0,1,0,0,0,1 @ F,0,0,1,0,0,0,1 @ F,0,0,1,0,0,0,1 | F,0,0,1,0,0,0,1 @ F,0,0,1,0,0,0,1 @ F,0,0,1,0,0,0,1 @ F,0,0,1,0,0,0,1 | F,0,0,1,0,0,0,1 @ F,0,0,1,0,0,0,1 @ F,0,0,1,0,0,0,1 @ F,0,0,1,0,0,0,1 @ F,0,0,1,0,0,0,1 @ F,0,0,1,0,0,0,1 @ F,0,0,1,0,0,0,1 @ F,0,0,1,0,0,0,1 @ F,0,0,1,0,0,0,1 @ F,0,0,1,0,0,0,1 @ F,0,0,1,0,0,0,1 @ F,0,0,1,0,0,0,1 | F,0,0,1,0,0,0,1 @ F,0,0,1,0,0,0,1 @ F,0,0,1,0,0,0,1 @ F,0,0,1,0,0,0,1 | F,0,0,1,0,0,0,1 @ F,0,0,1,0,0,0,1 @ F,0,0,1,0,0,0,1 @ F,0,0,1,0,0,0,1 | F,0,0,1,0,0,0,1 @ F,0,0,1,0,0,0,1 @ F,0,0,1,0,0,0,1 @ F,0,0,1,0,0,0,1 | F,0,0,1,0,0,0,1 @ F,0,0,1,0,0,0,1 @ F,0,0,1,0,0,0,1 @ F,0,0,1,0,0,0,1 | F,0,0,1,0,0,0,1 @ F,0,0,1,0,0,0,1 @ F,0,0,1,0,0,0,1 @ F,0,0,1,0,0,0,1 | F,0,0,1,0,0,0,1 @ F,0,0,1,0,0,0,1 @ F,0,0,1,0,0,0,1 @ F,0,0,1,0,0,0,1 | F,0,0,1,0,0,0,1 @ F,0,0,1,0,0,0,1 @ F,0,0,1,0,0,0,1 @ F,0,0,1,0,0,0,1 | F,0,0,1,0,0,0,1 @ F,0,0,1,0,0,0,1 @ F,0,0,1,0,0,0,1 @ F,0,0,1,0,0,0,1 | F,0,0,1,0,0,0,1 @ F,0,0,1,0,0,0,1 @ F,0,0,1,0,0,0,1 @ F,0,0,1,0,0,0,1 @ F,0,0,1,0,0,0,1 @ F,0,0,1,0,0,0,1"
       radius="0"
       unit="px"
       method="auto"
       mode="F"
       chamfer_steps="1"
       flexible="false"
       use_knot_distance="true"
       apply_no_radius="true"
       apply_with_radius="true"
       only_selected="false"
       hide_knots="false" /><inkscape:path-effect
       effect="fillet_chamfer"
       id="path-effect2"
       is_visible="true"
       lpeversion="1"
       nodesatellites_param="F,0,0,1,0,0,0,1 @ F,0,0,1,0,0,0,1 @ F,0,0,1,0,0,0,1 @ F,0,0,1,0,0,0,1 | F,0,0,1,0,0,0,1 @ F,0,0,1,0,0,0,1 @ F,0,0,1,0,0,0,1 @ F,0,0,1,0,0,0,1 | F,0,0,1,0,0,0,1 @ F,0,0,1,0,0,0,1 @ F,0,0,1,0,0,0,1 @ F,0,0,1,0,0,0,1 @ F,0,0,1,0,0,0,1 @ F,0,0,1,0,0,0,1 @ F,0,0,1,0,0,0,1 @ F,0,0,1,0,0,0,1 @ F,0,0,1,0,0,0,1 @ F,0,0,1,0,0,0,1 @ F,0,0,1,0,0,0,1 @ F,0,0,1,0,0,0,1 | F,0,0,1,0,0,0,1 @ F,0,0,1,0,0,0,1 @ F,0,0,1,0,0,0,1 @ F,0,0,1,0,0,0,1 | F,0,0,1,0,0,0,1 @ F,0,0,1,0,0,0,1 @ F,0,0,1,0,0,0,1 @ F,0,0,1,0,0,0,1 | F,0,0,1,0,0,0,1 @ F,0,0,1,0,0,0,1 @ F,0,0,1,0,0,0,1 @ F,0,0,1,0,0,0,1 | F,0,0,1,0,0,0,1 @ F,0,0,1,0,0,0,1 @ F,0,0,1,0,0,0,1 @ F,0,0,1,0,0,0,1 | F,0,0,1,0,0,0,1 @ F,0,0,1,0,0,0,1 @ F,0,0,1,0,0,0,1 @ F,0,0,1,0,0,0,1 | F,0,0,1,0,0,0,1 @ F,0,0,1,0,0,0,1 @ F,0,0,1,0,0,0,1 @ F,0,0,1,0,0,0,1 | F,0,0,1,0,0,0,1 @ F,0,0,1,0,0,0,1 @ F,0,0,1,0,0,0,1 @ F,0,0,1,0,0,0,1 | F,0,0,1,0,0,0,1 @ F,0,0,1,0,0,0,1 @ F,0,0,1,0,0,0,1 @ F,0,0,1,0,0,0,1 | F,0,0,1,0,0,0,1 @ F,0,0,1,0,0,0,1 @ F,0,0,1,0,0,0,1 @ F,0,0,1,0,0,0,1 @ F,0,0,1,0,0,0,1 @ F,0,0,1,0,0,0,1"
       radius="0"
       unit="px"
       method="auto"
       mode="F"
       chamfer_steps="1"
       flexible="false"
       use_knot_distance="true"
       apply_no_radius="true"
       apply_with_radius="true"
       only_selected="false"
       hide_knots="false" /></defs><sodipodi:namedview
     id="namedview1"
     pagecolor="#505050"
     bordercolor="#eeeeee"
     borderopacity="1"
     inkscape:showpageshadow="0"
     inkscape:pageopacity="0"
     inkscape:pagecheckerboard="0"
     inkscape:deskcolor="#505050"
     inkscape:zoom="1.65625"
     inkscape:cx="60.075472"
     inkscape:cy="148.83019"
     inkscape:window-width="1864"
     inkscape:window-height="1025"
     inkscape:window-x="1976"
     inkscape:window-y="25"
     inkscape:window-maximized="1"
     inkscape:current-layer="svg1" /><rect
     style="fill:#b6ccc3;fill-opacity:1;stroke-width:1.66207"
     id="rect2"
     width="128.34264"
     height="126.13924"
     x="150.1051"
     y="5.5174937"
     ry="0"
     transform="matrix(0.87619867,0.4819501,-0.87619867,0.4819501,0,0)" /><path
     fill="currentColor"
     d="m 13,141.21 112,64 a 6,6 0 0 0 6,0 l 112,-64 a 6,6 0 0 0 0,-10.42 l -112,-64 a 6,6 0 0 0 -6,0 l -112,64 a 6,6 0 0 0 0,10.42 M 128,78.91 227.91,136 128,193.09 28.09,136 Z M 245.21,173 a 6,6 0 0 1 -2.23,8.19 l -112,64 a 6,6 0 0 1 -6,0 l -112,-64 a 6.0119963,6.0119963 0 0 1 6,-10.42 l 109,62.3 109,-62.3 a 6,6 0 0 1 8.23,2.23"
     id="path1"
     style="fill:#d6ae75;fill-opacity:1" /><path
     id="rect1"
     style="fill:#253028;fill-opacity:1"
     d="m 62.792454,18.415094 h 59.773586 v 28.334003 l 70.44385,0.213467 v 83.452526 l -130.217436,0 z"
     sodipodi:nodetypes="ccccccc" /><path
     fill="currentColor"
     d="m 170.84394,95.49114 h -14.14385 v 14.14385 h 14.14385 m 0,-42.43156 h -14.14385 v 14.143855 h 14.14385 m 14.14386,42.431565 h -56.57543 v -14.14386 h 14.14386 V 95.49114 H 128.41237 V 81.347285 h 14.14386 V 67.20343 H 128.41237 V 53.059575 H 184.9878 M 114.26852,38.91572 H 100.12466 V 24.771866 h 14.14386 m 0,42.431564 H 100.12466 V 53.059575 h 14.14386 m 0,42.431565 H 100.12466 V 81.347285 h 14.14386 m 0,42.431565 h -14.14386 v -14.14386 h 14.14386 M 85.980806,38.91572 H 71.836952 V 24.771866 h 14.143854 m 0,42.431564 H 71.836952 V 53.059575 h 14.143854 m 0,42.431565 H 71.836952 V 81.347285 h 14.143854 m 0,42.431565 H 71.836952 V 109.63499 H 85.980806 M 128.41237,30.136063 V 19.407668 a 8.7796569,8.7796569 45 0 0 -8.77966,-8.779657 H 66.472754 a 8.7796569,8.7796569 135 0 0 -8.779657,8.779657 V 129.14304 a 8.7796569,8.7796569 45 0 0 8.779657,8.77966 H 190.35199 a 8.7796569,8.7796569 135 0 0 8.77966,-8.77966 V 47.695377 a 8.7796569,8.7796569 45 0 0 -8.77966,-8.779657 l -53.15996,0 a 8.7796569,8.7796569 45 0 1 -8.77966,-8.779657 z"
     id="path1-5"
     style="stroke-width:7.07193;fill:#d6ae75;fill-opacity:1"
     inkscape:path-effect="#path-effect4"
     inkscape:original-d="m 170.84394,95.49114 h -14.14385 v 14.14385 h 14.14385 m 0,-42.43156 h -14.14385 v 14.143855 h 14.14385 m 14.14386,42.431565 h -56.57543 v -14.14386 h 14.14386 V 95.49114 H 128.41237 V 81.347285 h 14.14386 V 67.20343 H 128.41237 V 53.059575 H 184.9878 M 114.26852,38.91572 H 100.12466 V 24.771866 h 14.14386 m 0,42.431564 H 100.12466 V 53.059575 h 14.14386 m 0,42.431565 H 100.12466 V 81.347285 h 14.14386 m 0,42.431565 h -14.14386 v -14.14386 h 14.14386 M 85.980806,38.91572 H 71.836952 V 24.771866 h 14.143854 m 0,42.431564 H 71.836952 V 53.059575 h 14.143854 m 0,42.431565 H 71.836952 V 81.347285 h 14.143854 m 0,42.431565 H 71.836952 V 109.63499 H 85.980806 M 128.41237,38.91572 V 10.628011 H 57.693097 V 137.9227 H 199.13165 V 38.91572 Z" /></svg>
